<svg xmlns="http://www.w3.org/2000/svg" aria-label="ProtonMail" role="img" width="512" height="512" style=""><rect id="backgroundrect" width="100%" height="100%" x="0" y="0" fill="none" stroke="none"/><g class="currentLayer" style=""><title>Layer 1</title><rect width="512" height="512" rx="15%" fill="#ffffff" id="svg_1" class="" stroke="#ffffff" stroke-opacity="1" fill-opacity="1" opacity="0"/><g fill="#fff" id="svg_2" class="selected" opacity="1"><path d="M259 77s-108-6-131 114v79s0 12 23 29c28 17 91 68 108 68s74-51 102-69c23-16 23-28 23-28v-79C361 71 259 77 259 77zm68 159H185v-45c11-57 74-57 74-57s57 0 68 57v45z" id="svg_3" opacity="1"/><path d="M259 384l-34-12-97-68v120s0 11 17 11h222c11 0 17-11 17-11V304l-97 69-28 11z" id="svg_4" opacity="1"/></g></g></svg>